<?xml version="1.0" encoding="UTF-8"?>
<svg xmlns="http://www.w3.org/2000/svg" xmlns:xlink="http://www.w3.org/1999/xlink" width="613" height="438" viewBox="0 0 613 438">
<path fill-rule="nonzero" fill="#342D2D" fill-opacity="1" d="M 104.8125 204.050781 C 105.730469 206.652344 106.230469 209.632812 106.230469 212.800781 C 106.230469 213.054688 106.210938 213.308594 106.203125 213.5625 C 106.203125 217.046875 104.109375 220.132812 101.125 221.480469 C 97.285156 223.15625 92.296875 224.570312 86.785156 225.445312 C 82.675781 226.097656 78.757812 226.359375 75.296875 226.28125 L 69.210938 240.609375 C 68.960938 241.097656 68.5 241.445312 67.925781 241.445312 C 67.570312 241.445312 67.242188 241.308594 66.992188 241.085938 L 56.710938 232.605469 C 56.421875 232.351562 56.242188 231.976562 56.242188 231.566406 C 56.242188 231.101562 56.429688 230.695312 56.8125 230.441406 L 97.917969 192.304688 C 99.652344 190.710938 101.96875 189.738281 104.507812 189.738281 C 107.160156 189.738281 109.578125 190.785156 111.375 192.5 L 120.539062 201.816406 C 120.769531 202.066406 120.898438 202.398438 120.898438 202.765625 C 120.898438 203.539062 120.273438 204.164062 119.496094 204.164062 L 104.8125 204.050781 "/>
<path fill="none" stroke-width="3.09831" stroke-linecap="butt" stroke-linejoin="miter" stroke="#342D2D" stroke-opacity="1" stroke-miterlimit="3.864" d="M 1048.125 2339.492188 C 1057.304688 2313.476562 1062.304688 2283.671875 1062.304688 2251.992188 C 1062.304688 2249.453125 1062.109375 2246.914062 1062.03125 2244.375 C 1062.03125 2209.53125 1041.09375 2178.671875 1011.25 2165.195312 C 972.851562 2148.4375 922.96875 2134.296875 867.851562 2125.546875 C 826.757812 2119.023438 787.578125 2116.40625 752.96875 2117.1875 L 692.109375 1973.90625 C 689.609375 1969.023438 685 1965.546875 679.257812 1965.546875 C 675.703125 1965.546875 672.421875 1966.914062 669.921875 1969.140625 L 567.109375 2053.945312 C 564.21875 2056.484375 562.421875 2060.234375 562.421875 2064.335938 C 562.421875 2068.984375 564.296875 2073.046875 568.125 2075.585938 L 979.179688 2456.953125 C 996.523438 2472.890625 1019.6875 2482.617188 1045.078125 2482.617188 C 1071.601562 2482.617188 1095.78125 2472.148438 1113.75 2455 L 1205.390625 2361.835938 C 1207.695312 2359.335938 1208.984375 2356.015625 1208.984375 2352.34375 C 1208.984375 2344.609375 1202.734375 2338.359375 1194.960938 2338.359375 Z M 1048.125 2339.492188 " transform="matrix(0.1, 0, 0, -0.1, 0, 438)"/>
<path fill-rule="nonzero" fill="#342D2D" fill-opacity="1" d="M 173.8125 281.722656 C 174.414062 281.046875 174.78125 280.160156 174.78125 279.183594 C 174.78125 277.082031 173.078125 275.378906 170.976562 275.378906 C 169.976562 275.378906 169.097656 275.753906 168.449219 276.382812 C 165.722656 278.949219 162.664062 280.4375 158.539062 280.503906 C 154.667969 280.566406 151.152344 279.054688 148.628906 276.496094 C 147.902344 275.808594 146.988281 275.378906 145.933594 275.378906 C 144.765625 275.378906 143.855469 275.828125 143.160156 276.65625 C 140.789062 279.117188 137.515625 280.652344 133.851562 280.652344 C 130.171875 280.652344 126.933594 279.246094 124.59375 276.769531 C 123.894531 275.917969 122.839844 275.378906 121.652344 275.378906 C 120.5625 275.378906 119.542969 275.839844 118.882812 276.574219 C 116.328125 279.140625 112.859375 280.644531 108.980469 280.644531 C 105.121094 280.644531 101.542969 279.03125 99.023438 276.496094 C 98.292969 275.804688 97.378906 275.378906 96.328125 275.378906 C 94.222656 275.378906 92.523438 277.082031 92.523438 279.183594 C 92.523438 280.113281 92.945312 281.160156 93.496094 281.824219 C 96.96875 285.816406 102.15625 288.335938 107.894531 288.335938 C 111.984375 288.335938 115.910156 287.164062 119.023438 284.980469 C 119.640625 284.460938 120.496094 284.15625 121.394531 284.15625 C 122.359375 284.15625 123.242188 284.515625 123.914062 285.109375 C 126.636719 287.097656 130.027344 288.339844 133.660156 288.339844 C 137.4375 288.339844 140.890625 287.070312 143.699219 284.929688 C 144.351562 284.402344 145.125 284.082031 146.027344 284.082031 C 146.9375 284.082031 147.667969 284.367188 148.359375 284.898438 C 151.464844 287.0625 155.238281 288.335938 159.308594 288.335938 C 165.019531 288.335938 170.273438 285.675781 173.8125 281.722656 "/>
<path fill="none" stroke-width="3.09831" stroke-linecap="butt" stroke-linejoin="miter" stroke="#342D2D" stroke-opacity="1" stroke-miterlimit="3.864" d="M 1738.125 1562.773438 C 1744.140625 1569.53125 1747.8125 1578.398438 1747.8125 1588.164062 C 1747.8125 1609.179688 1730.78125 1626.210938 1709.765625 1626.210938 C 1699.765625 1626.210938 1690.976562 1622.460938 1684.492188 1616.171875 C 1657.226562 1590.507812 1626.640625 1575.625 1585.390625 1574.960938 C 1546.679688 1574.335938 1511.523438 1589.453125 1486.289062 1615.039062 C 1479.023438 1621.914062 1469.882812 1626.210938 1459.335938 1626.210938 C 1447.65625 1626.210938 1438.554688 1621.71875 1431.601562 1613.4375 C 1407.890625 1588.828125 1375.15625 1573.476562 1338.515625 1573.476562 C 1301.71875 1573.476562 1269.335938 1587.539062 1245.9375 1612.304688 C 1238.945312 1620.820312 1228.398438 1626.210938 1216.523438 1626.210938 C 1205.625 1626.210938 1195.429688 1621.601562 1188.828125 1614.257812 C 1163.28125 1588.59375 1128.59375 1573.554688 1089.804688 1573.554688 C 1051.210938 1573.554688 1015.429688 1589.6875 990.234375 1615.039062 C 982.929688 1621.953125 973.789062 1626.210938 963.28125 1626.210938 C 942.226562 1626.210938 925.234375 1609.179688 925.234375 1588.164062 C 925.234375 1578.867188 929.453125 1568.398438 934.960938 1561.757812 C 969.6875 1521.835938 1021.5625 1496.640625 1078.945312 1496.640625 C 1119.84375 1496.640625 1159.101562 1508.359375 1190.234375 1530.195312 C 1196.40625 1535.390625 1204.960938 1538.4375 1213.945312 1538.4375 C 1223.59375 1538.4375 1232.421875 1534.84375 1239.140625 1528.90625 C 1266.367188 1509.023438 1300.273438 1496.601562 1336.601562 1496.601562 C 1374.375 1496.601562 1408.90625 1509.296875 1436.992188 1530.703125 C 1443.515625 1535.976562 1451.25 1539.179688 1460.273438 1539.179688 C 1469.375 1539.179688 1476.679688 1536.328125 1483.59375 1531.015625 C 1514.648438 1509.375 1552.382812 1496.640625 1593.085938 1496.640625 C 1650.195312 1496.640625 1702.734375 1523.242188 1738.125 1562.773438 Z M 1738.125 1562.773438 " transform="matrix(0.1, 0, 0, -0.1, 0, 438)"/>
<path fill-rule="nonzero" fill="#342D2D" fill-opacity="1" d="M 163.839844 175.191406 C 163.839844 173.976562 162.851562 172.988281 161.636719 172.988281 L 161.625 172.988281 L 105.667969 172.996094 C 104.453125 172.996094 103.445312 173.929688 103.445312 175.144531 L 103.445312 179.929688 C 103.445312 181.144531 104.472656 182.214844 105.6875 182.214844 L 130.195312 182.199219 L 125.6875 245.011719 C 117.507812 242.730469 110.761719 237.140625 107.085938 229.648438 L 84.851562 229.648438 C 83.636719 229.648438 82.722656 230.6875 82.722656 231.902344 L 82.660156 237.683594 C 82.660156 238.902344 83.730469 239.914062 84.949219 239.914062 L 90.828125 239.949219 C 96.199219 258.476562 113.289062 272.03125 133.550781 272.03125 C 153.828125 272.03125 171.007812 258.394531 176.363281 239.84375 L 181.964844 239.820312 C 183.179688 239.820312 184.183594 238.835938 184.183594 237.621094 L 184.144531 231.867188 C 184.144531 230.652344 183.226562 229.648438 182.011719 229.648438 L 160.222656 229.636719 C 156.519531 237.402344 149.855469 242.785156 141.445312 245.136719 L 137.109375 182.199219 L 161.542969 182.210938 C 162.757812 182.210938 163.808594 181.324219 163.808594 180.105469 L 163.839844 175.191406 "/>
<path fill="none" stroke-width="3.09831" stroke-linecap="butt" stroke-linejoin="miter" stroke="#342D2D" stroke-opacity="1" stroke-miterlimit="3.864" d="M 1638.398438 2628.085938 C 1638.398438 2640.234375 1628.515625 2650.117188 1616.367188 2650.117188 L 1616.25 2650.117188 L 1056.679688 2650.039062 C 1044.53125 2650.039062 1034.453125 2640.703125 1034.453125 2628.554688 L 1034.453125 2580.703125 C 1034.453125 2568.554688 1044.726562 2557.851562 1056.875 2557.851562 L 1301.953125 2558.007812 L 1256.875 1929.882812 C 1175.078125 1952.695312 1107.617188 2008.59375 1070.859375 2083.515625 L 848.515625 2083.515625 C 836.367188 2083.515625 827.226562 2073.125 827.226562 2060.976562 L 826.601562 2003.164062 C 826.601562 1990.976562 837.304688 1980.859375 849.492188 1980.859375 L 908.28125 1980.507812 C 961.992188 1795.234375 1132.890625 1659.6875 1335.507812 1659.6875 C 1538.28125 1659.6875 1710.078125 1796.054688 1763.632812 1981.5625 L 1819.648438 1981.796875 C 1831.796875 1981.796875 1841.835938 1991.640625 1841.835938 2003.789062 L 1841.445312 2061.328125 C 1841.445312 2073.476562 1832.265625 2083.515625 1820.117188 2083.515625 L 1602.226562 2083.632812 C 1565.195312 2005.976562 1498.554688 1952.148438 1414.453125 1928.632812 L 1371.09375 2558.007812 L 1615.429688 2557.890625 C 1627.578125 2557.890625 1638.085938 2566.757812 1638.085938 2578.945312 Z M 1638.398438 2628.085938 " transform="matrix(0.1, 0, 0, -0.1, 0, 438)"/>
<path fill-rule="nonzero" fill="#342D2D" fill-opacity="1" d="M 147.242188 168.839844 C 148.078125 168.839844 148.753906 168.164062 148.753906 167.328125 C 148.753906 166.867188 148.5625 166.457031 148.234375 166.179688 L 140.109375 160.015625 L 148.285156 153.640625 C 148.550781 153.367188 148.734375 152.953125 148.734375 152.546875 C 148.734375 151.710938 148.039062 151.054688 147.203125 151.054688 L 126.878906 151.023438 C 125.664062 151.023438 124.714844 152.066406 124.714844 153.28125 L 124.636719 166.71875 C 124.636719 167.933594 125.636719 168.894531 126.851562 168.894531 L 147.242188 168.839844 "/>
<path fill="none" stroke-width="3.09831" stroke-linecap="butt" stroke-linejoin="miter" stroke="#342D2D" stroke-opacity="1" stroke-miterlimit="3.864" d="M 1472.421875 2691.601562 C 1480.78125 2691.601562 1487.539062 2698.359375 1487.539062 2706.71875 C 1487.539062 2711.328125 1485.625 2715.429688 1482.34375 2718.203125 L 1401.09375 2779.84375 L 1482.851562 2843.59375 C 1485.507812 2846.328125 1487.34375 2850.46875 1487.34375 2854.53125 C 1487.34375 2862.890625 1480.390625 2869.453125 1472.03125 2869.453125 L 1268.789062 2869.765625 C 1256.640625 2869.765625 1247.148438 2859.335938 1247.148438 2847.1875 L 1246.367188 2712.8125 C 1246.367188 2700.664062 1256.367188 2691.054688 1268.515625 2691.054688 Z M 1472.421875 2691.601562 " transform="matrix(0.1, 0, 0, -0.1, 0, 438)"/>
<path fill-rule="nonzero" fill="#342D2D" fill-opacity="1" d="M 161.007812 203.910156 C 160.09375 206.511719 159.589844 209.492188 159.589844 212.65625 C 159.589844 212.910156 159.613281 213.167969 159.621094 213.421875 C 159.621094 216.902344 161.710938 219.992188 164.699219 221.335938 C 168.539062 223.015625 173.527344 224.429688 179.035156 225.300781 C 183.144531 225.953125 187.066406 226.21875 190.523438 226.140625 L 196.613281 240.464844 C 196.863281 240.957031 197.320312 241.300781 197.894531 241.300781 C 198.253906 241.300781 198.582031 241.164062 198.828125 240.941406 L 209.113281 232.464844 C 209.398438 232.210938 209.578125 231.835938 209.578125 231.421875 C 209.578125 230.960938 209.394531 230.550781 209.011719 230.296875 L 167.902344 192.160156 C 166.167969 190.570312 163.855469 189.597656 161.3125 189.597656 C 158.664062 189.597656 156.242188 190.640625 154.445312 192.359375 L 145.285156 201.675781 C 145.054688 201.925781 144.925781 202.257812 144.925781 202.621094 C 144.925781 203.398438 145.550781 204.023438 146.324219 204.023438 L 161.007812 203.910156 "/>
<path fill="none" stroke-width="3.09831" stroke-linecap="butt" stroke-linejoin="miter" stroke="#342D2D" stroke-opacity="1" stroke-miterlimit="3.864" d="M 1610.078125 2340.898438 C 1600.9375 2314.882812 1595.898438 2285.078125 1595.898438 2253.4375 C 1595.898438 2250.898438 1596.132812 2248.320312 1596.210938 2245.78125 C 1596.210938 2210.976562 1617.109375 2180.078125 1646.992188 2166.640625 C 1685.390625 2149.84375 1735.273438 2135.703125 1790.351562 2126.992188 C 1831.445312 2120.46875 1870.664062 2117.8125 1905.234375 2118.59375 L 1966.132812 1975.351562 C 1968.632812 1970.429688 1973.203125 1966.992188 1978.945312 1966.992188 C 1982.539062 1966.992188 1985.820312 1968.359375 1988.28125 1970.585938 L 2091.132812 2055.351562 C 2093.984375 2057.890625 2095.78125 2061.640625 2095.78125 2065.78125 C 2095.78125 2070.390625 2093.945312 2074.492188 2090.117188 2077.03125 L 1679.023438 2458.398438 C 1661.679688 2474.296875 1638.554688 2484.023438 1613.125 2484.023438 C 1586.640625 2484.023438 1562.421875 2473.59375 1544.453125 2456.40625 L 1452.851562 2363.242188 C 1450.546875 2360.742188 1449.257812 2357.421875 1449.257812 2353.789062 C 1449.257812 2346.015625 1455.507812 2339.765625 1463.242188 2339.765625 Z M 1610.078125 2340.898438 " transform="matrix(0.1, 0, 0, -0.1, 0, 438)"/>
<path fill-rule="nonzero" fill="#342D2D" fill-opacity="1" d="M 248.882812 285.703125 C 248.871094 285.589844 248.855469 285.496094 248.832031 285.433594 C 248.808594 285.367188 248.777344 285.324219 248.738281 285.300781 C 248.699219 285.273438 248.652344 285.265625 248.597656 285.265625 C 248.480469 285.265625 248.320312 285.339844 248.117188 285.484375 C 247.914062 285.632812 247.65625 285.796875 247.339844 285.980469 C 247.023438 286.160156 246.644531 286.324219 246.195312 286.472656 C 245.746094 286.621094 245.222656 286.695312 244.625 286.695312 C 243.914062 286.695312 243.28125 286.566406 242.71875 286.316406 C 242.15625 286.0625 241.6875 285.691406 241.300781 285.199219 C 240.914062 284.707031 240.617188 284.09375 240.410156 283.363281 C 240.203125 282.628906 240.101562 281.785156 240.101562 280.835938 C 240.101562 279.875 240.207031 279.019531 240.421875 278.269531 C 240.636719 277.523438 240.9375 276.890625 241.328125 276.371094 C 241.71875 275.851562 242.1875 275.457031 242.734375 275.191406 C 243.285156 274.921875 243.894531 274.789062 244.566406 274.789062 C 245.179688 274.789062 245.710938 274.863281 246.148438 275.015625 C 246.589844 275.167969 246.964844 275.335938 247.269531 275.515625 C 247.578125 275.699219 247.828125 275.863281 248.023438 276.015625 C 248.21875 276.167969 248.371094 276.242188 248.480469 276.242188 C 248.542969 276.242188 248.597656 276.226562 248.640625 276.191406 C 248.679688 276.15625 248.71875 276.101562 248.75 276.027344 C 248.78125 275.953125 248.804688 275.863281 248.820312 275.753906 C 248.835938 275.648438 248.84375 275.515625 248.84375 275.359375 C 248.84375 275.21875 248.835938 275.101562 248.824219 275 C 248.8125 274.898438 248.796875 274.8125 248.777344 274.738281 C 248.757812 274.664062 248.734375 274.601562 248.703125 274.542969 C 248.671875 274.488281 248.605469 274.410156 248.5 274.304688 C 248.394531 274.203125 248.207031 274.070312 247.9375 273.90625 C 247.664062 273.742188 247.355469 273.601562 247.007812 273.476562 C 246.65625 273.351562 246.277344 273.25 245.867188 273.167969 C 245.457031 273.085938 245.035156 273.046875 244.601562 273.046875 C 243.613281 273.046875 242.71875 273.222656 241.90625 273.578125 C 241.097656 273.9375 240.402344 274.453125 239.820312 275.132812 C 239.238281 275.808594 238.789062 276.636719 238.46875 277.613281 C 238.144531 278.589844 237.984375 279.703125 237.984375 280.949219 C 237.984375 282.167969 238.132812 283.242188 238.433594 284.179688 C 238.730469 285.109375 239.15625 285.894531 239.710938 286.53125 C 240.265625 287.167969 240.9375 287.648438 241.722656 287.972656 C 242.507812 288.296875 243.390625 288.460938 244.367188 288.460938 C 244.933594 288.460938 245.453125 288.40625 245.929688 288.304688 C 246.40625 288.199219 246.828125 288.070312 247.199219 287.921875 C 247.566406 287.769531 247.875 287.613281 248.121094 287.453125 C 248.371094 287.296875 248.53125 287.179688 248.609375 287.101562 C 248.6875 287.023438 248.742188 286.957031 248.773438 286.902344 C 248.804688 286.847656 248.828125 286.785156 248.847656 286.714844 C 248.867188 286.648438 248.882812 286.566406 248.890625 286.472656 C 248.898438 286.378906 248.902344 286.269531 248.902344 286.144531 C 248.902344 285.96875 248.894531 285.820312 248.882812 285.703125 M 265.628906 273.589844 C 265.597656 273.507812 265.554688 273.4375 265.5 273.375 C 265.445312 273.320312 265.367188 273.277344 265.269531 273.242188 C 265.167969 273.210938 265.035156 273.191406 264.871094 273.179688 C 264.707031 273.167969 264.503906 273.160156 264.253906 273.160156 C 264.023438 273.160156 263.832031 273.167969 263.679688 273.179688 C 263.527344 273.191406 263.40625 273.210938 263.308594 273.242188 C 263.210938 273.277344 263.136719 273.316406 263.085938 273.371094 C 263.035156 273.425781 262.996094 273.496094 262.964844 273.578125 L 257.921875 287.554688 C 257.859375 287.726562 257.824219 287.863281 257.820312 287.96875 C 257.816406 288.070312 257.84375 288.148438 257.902344 288.203125 C 257.960938 288.257812 258.0625 288.296875 258.203125 288.316406 C 258.347656 288.335938 258.53125 288.347656 258.757812 288.347656 C 258.972656 288.347656 259.148438 288.335938 259.285156 288.324219 C 259.421875 288.304688 259.527344 288.28125 259.601562 288.246094 C 259.671875 288.210938 259.730469 288.167969 259.769531 288.117188 C 259.808594 288.066406 259.839844 288.007812 259.859375 287.9375 L 261.09375 284.324219 L 267.347656 284.324219 L 268.640625 287.984375 C 268.667969 288.054688 268.703125 288.113281 268.738281 288.160156 C 268.773438 288.203125 268.828125 288.242188 268.898438 288.269531 C 268.972656 288.296875 269.082031 288.316406 269.226562 288.324219 C 269.371094 288.339844 269.5625 288.347656 269.800781 288.347656 C 270.039062 288.347656 270.230469 288.335938 270.375 288.324219 C 270.519531 288.304688 270.621094 288.269531 270.683594 288.21875 C 270.746094 288.160156 270.773438 288.082031 270.773438 287.976562 C 270.769531 287.871094 270.734375 287.734375 270.671875 287.566406 Z M 266.824219 282.730469 L 261.59375 282.730469 L 264.1875 275.230469 L 264.195312 275.230469 Z M 264.035156 268.652344 C 263.921875 268.65625 263.824219 268.675781 263.738281 268.703125 C 263.652344 268.730469 263.578125 268.765625 263.511719 268.808594 C 263.445312 268.851562 263.382812 268.90625 263.320312 268.976562 L 260.714844 271.613281 C 260.644531 271.695312 260.605469 271.757812 260.589844 271.8125 C 260.574219 271.867188 260.585938 271.910156 260.628906 271.949219 C 260.671875 271.984375 260.746094 272.007812 260.851562 272.027344 C 260.953125 272.046875 261.105469 272.058594 261.296875 272.058594 C 261.507812 272.058594 261.679688 272.054688 261.820312 272.046875 C 261.960938 272.039062 262.074219 272.023438 262.167969 272 C 262.261719 271.976562 262.339844 271.941406 262.402344 271.902344 C 262.464844 271.859375 262.523438 271.804688 262.589844 271.742188 L 264.4375 269.789062 L 266.226562 271.800781 C 266.265625 271.839844 266.308594 271.878906 266.359375 271.910156 C 266.410156 271.949219 266.480469 271.972656 266.5625 271.992188 C 266.648438 272.011719 266.761719 272.027344 266.902344 272.039062 C 267.039062 272.050781 267.226562 272.058594 267.460938 272.058594 C 267.628906 272.058594 267.769531 272.050781 267.878906 272.035156 C 267.984375 272.019531 268.0625 271.992188 268.109375 271.957031 C 268.15625 271.925781 268.171875 271.878906 268.15625 271.820312 C 268.140625 271.761719 268.097656 271.695312 268.027344 271.613281 L 265.539062 268.976562 C 265.472656 268.90625 265.40625 268.851562 265.347656 268.808594 C 265.292969 268.765625 265.222656 268.730469 265.140625 268.703125 C 265.058594 268.675781 264.964844 268.65625 264.855469 268.652344 C 264.746094 268.644531 264.609375 268.640625 264.445312 268.640625 C 264.285156 268.640625 264.148438 268.644531 264.035156 268.652344 M 297.398438 274.136719 C 297.398438 273.976562 297.375 273.839844 297.328125 273.726562 C 297.277344 273.613281 297.21875 273.519531 297.144531 273.449219 C 297.066406 273.375 296.976562 273.320312 296.871094 273.285156 C 296.765625 273.25 296.652344 273.230469 296.535156 273.230469 L 295.246094 273.230469 C 295.050781 273.230469 294.878906 273.253906 294.730469 273.296875 C 294.578125 273.339844 294.441406 273.40625 294.320312 273.503906 C 294.199219 273.601562 294.085938 273.734375 293.984375 273.894531 C 293.882812 274.058594 293.785156 274.253906 293.699219 274.488281 L 289.226562 285.347656 L 289.167969 285.347656 L 284.867188 274.453125 C 284.796875 274.242188 284.710938 274.0625 284.617188 273.90625 C 284.523438 273.75 284.40625 273.625 284.261719 273.523438 C 284.121094 273.421875 283.957031 273.347656 283.769531 273.300781 C 283.578125 273.253906 283.359375 273.230469 283.105469 273.230469 L 281.878906 273.230469 C 281.667969 273.230469 281.472656 273.300781 281.300781 273.441406 C 281.128906 273.578125 281.039062 273.8125 281.039062 274.136719 L 281.039062 287.972656 C 281.039062 288.035156 281.054688 288.089844 281.082031 288.132812 C 281.109375 288.183594 281.160156 288.21875 281.238281 288.246094 C 281.3125 288.273438 281.414062 288.296875 281.542969 288.316406 C 281.671875 288.335938 281.832031 288.347656 282.023438 288.347656 C 282.222656 288.347656 282.386719 288.335938 282.515625 288.316406 C 282.640625 288.296875 282.746094 288.273438 282.824219 288.246094 C 282.902344 288.21875 282.960938 288.183594 282.992188 288.132812 C 283.023438 288.089844 283.039062 288.035156 283.039062 287.972656 L 283.039062 274.871094 L 283.050781 274.871094 L 288.121094 288.03125 C 288.136719 288.074219 288.164062 288.121094 288.207031 288.160156 C 288.25 288.195312 288.3125 288.230469 288.386719 288.257812 C 288.464844 288.28125 288.5625 288.304688 288.679688 288.324219 C 288.792969 288.335938 288.933594 288.347656 289.097656 288.347656 C 289.253906 288.347656 289.386719 288.339844 289.496094 288.324219 C 289.609375 288.316406 289.707031 288.296875 289.789062 288.269531 C 289.871094 288.242188 289.933594 288.207031 289.976562 288.171875 C 290.019531 288.132812 290.050781 288.085938 290.074219 288.03125 L 295.375 274.871094 L 295.398438 274.871094 L 295.398438 287.972656 C 295.398438 288.035156 295.414062 288.089844 295.445312 288.132812 C 295.476562 288.183594 295.53125 288.21875 295.609375 288.246094 C 295.683594 288.273438 295.789062 288.296875 295.917969 288.316406 C 296.050781 288.335938 296.207031 288.347656 296.390625 288.347656 C 296.589844 288.347656 296.753906 288.335938 296.878906 288.316406 C 297 288.296875 297.101562 288.273438 297.183594 288.246094 C 297.261719 288.21875 297.316406 288.183594 297.351562 288.132812 C 297.382812 288.089844 297.398438 288.035156 297.398438 287.972656 Z M 315.472656 273.589844 C 315.441406 273.507812 315.398438 273.4375 315.34375 273.375 C 315.289062 273.320312 315.214844 273.277344 315.113281 273.242188 C 315.011719 273.210938 314.882812 273.191406 314.71875 273.179688 C 314.554688 273.167969 314.351562 273.160156 314.101562 273.160156 C 313.867188 273.160156 313.675781 273.167969 313.527344 273.179688 C 313.375 273.191406 313.25 273.210938 313.152344 273.242188 C 313.058594 273.277344 312.980469 273.316406 312.933594 273.371094 C 312.882812 273.425781 312.839844 273.496094 312.8125 273.578125 L 307.765625 287.554688 C 307.703125 287.726562 307.671875 287.863281 307.667969 287.96875 C 307.660156 288.070312 307.6875 288.148438 307.746094 288.203125 C 307.804688 288.257812 307.90625 288.296875 308.050781 288.316406 C 308.191406 288.335938 308.378906 288.347656 308.601562 288.347656 C 308.820312 288.347656 308.996094 288.335938 309.132812 288.324219 C 309.265625 288.304688 309.371094 288.28125 309.445312 288.246094 C 309.519531 288.210938 309.574219 288.167969 309.613281 288.117188 C 309.652344 288.066406 309.683594 288.007812 309.707031 287.9375 L 310.9375 284.324219 L 317.191406 284.324219 L 318.484375 287.984375 C 318.515625 288.054688 318.546875 288.113281 318.582031 288.160156 C 318.617188 288.203125 318.671875 288.242188 318.742188 288.269531 C 318.816406 288.296875 318.925781 288.316406 319.070312 288.324219 C 319.214844 288.339844 319.40625 288.347656 319.644531 288.347656 C 319.886719 288.347656 320.078125 288.335938 320.222656 288.324219 C 320.363281 288.304688 320.46875 288.269531 320.527344 288.21875 C 320.59375 288.160156 320.621094 288.082031 320.617188 287.976562 C 320.609375 287.871094 320.578125 287.734375 320.519531 287.566406 Z M 316.671875 282.730469 L 311.4375 282.730469 L 314.03125 275.230469 L 314.042969 275.230469 Z M 340.871094 287.710938 C 340.839844 287.597656 340.769531 287.402344 340.660156 287.121094 L 339.3125 283.808594 C 339.15625 283.429688 339.003906 283.089844 338.847656 282.789062 C 338.691406 282.484375 338.53125 282.21875 338.355469 281.984375 C 338.183594 281.753906 337.992188 281.554688 337.789062 281.386719 C 337.589844 281.21875 337.363281 281.082031 337.117188 280.972656 C 337.558594 280.820312 337.957031 280.628906 338.3125 280.40625 C 338.671875 280.179688 338.976562 279.914062 339.230469 279.605469 C 339.488281 279.300781 339.683594 278.949219 339.816406 278.550781 C 339.953125 278.152344 340.023438 277.699219 340.023438 277.195312 C 340.023438 276.675781 339.949219 276.203125 339.796875 275.773438 C 339.644531 275.339844 339.417969 274.960938 339.117188 274.628906 C 338.8125 274.292969 338.441406 274.019531 337.992188 273.800781 C 337.550781 273.582031 337.035156 273.425781 336.453125 273.324219 C 336.25 273.300781 336.023438 273.28125 335.773438 273.261719 C 335.523438 273.238281 335.207031 273.230469 334.824219 273.230469 L 331.628906 273.230469 C 331.453125 273.230469 331.28125 273.292969 331.125 273.410156 C 330.964844 273.53125 330.886719 273.742188 330.886719 274.046875 L 330.886719 287.972656 C 330.886719 288.035156 330.902344 288.089844 330.933594 288.132812 C 330.960938 288.183594 331.015625 288.21875 331.09375 288.246094 C 331.171875 288.273438 331.273438 288.296875 331.402344 288.316406 C 331.53125 288.335938 331.691406 288.347656 331.886719 288.347656 C 332.078125 288.347656 332.238281 288.335938 332.367188 288.316406 C 332.496094 288.296875 332.597656 288.273438 332.671875 288.246094 C 332.742188 288.21875 332.796875 288.183594 332.832031 288.132812 C 332.867188 288.089844 332.886719 288.035156 332.886719 287.972656 L 332.886719 281.566406 L 334.222656 281.566406 C 334.679688 281.566406 335.070312 281.636719 335.394531 281.769531 C 335.722656 281.90625 336.007812 282.097656 336.242188 282.339844 C 336.484375 282.582031 336.691406 282.875 336.867188 283.210938 C 337.042969 283.546875 337.210938 283.917969 337.371094 284.324219 L 338.757812 287.867188 C 338.785156 287.960938 338.824219 288.039062 338.867188 288.101562 C 338.910156 288.160156 338.972656 288.210938 339.046875 288.246094 C 339.121094 288.28125 339.226562 288.304688 339.355469 288.324219 C 339.484375 288.335938 339.644531 288.347656 339.851562 288.347656 C 340.082031 288.347656 340.269531 288.335938 340.40625 288.324219 C 340.546875 288.304688 340.652344 288.28125 340.730469 288.25 C 340.808594 288.21875 340.859375 288.183594 340.886719 288.132812 C 340.90625 288.089844 340.917969 288.035156 340.917969 287.972656 C 340.917969 287.910156 340.902344 287.824219 340.871094 287.710938 M 337.726562 278.417969 C 337.605469 278.726562 337.417969 278.996094 337.164062 279.226562 C 336.90625 279.453125 336.589844 279.632812 336.203125 279.761719 C 335.820312 279.886719 335.367188 279.949219 334.839844 279.949219 L 332.886719 279.949219 L 332.886719 274.882812 L 334.570312 274.882812 C 334.964844 274.882812 335.285156 274.894531 335.53125 274.914062 C 335.773438 274.941406 335.992188 274.980469 336.1875 275.035156 C 336.808594 275.210938 337.25 275.503906 337.515625 275.910156 C 337.777344 276.316406 337.90625 276.816406 337.90625 277.40625 C 337.90625 277.769531 337.847656 278.109375 337.726562 278.417969 M 357.890625 273.589844 C 357.859375 273.507812 357.816406 273.4375 357.761719 273.375 C 357.710938 273.320312 357.628906 273.277344 357.527344 273.242188 C 357.429688 273.210938 357.296875 273.191406 357.132812 273.179688 C 356.972656 273.167969 356.765625 273.160156 356.519531 273.160156 C 356.285156 273.160156 356.09375 273.167969 355.941406 273.179688 C 355.789062 273.191406 355.667969 273.210938 355.570312 273.242188 C 355.472656 273.277344 355.398438 273.316406 355.351562 273.371094 C 355.300781 273.425781 355.257812 273.496094 355.226562 273.578125 L 350.179688 287.554688 C 350.121094 287.726562 350.085938 287.863281 350.082031 287.96875 C 350.078125 288.070312 350.105469 288.148438 350.164062 288.203125 C 350.222656 288.257812 350.324219 288.296875 350.464844 288.316406 C 350.609375 288.335938 350.792969 288.347656 351.019531 288.347656 C 351.234375 288.347656 351.410156 288.335938 351.546875 288.324219 C 351.683594 288.304688 351.789062 288.28125 351.863281 288.246094 C 351.9375 288.210938 351.992188 288.167969 352.03125 288.117188 C 352.070312 288.066406 352.101562 288.007812 352.121094 287.9375 L 353.355469 284.324219 L 359.609375 284.324219 L 360.898438 287.984375 C 360.933594 288.054688 360.964844 288.113281 360.996094 288.160156 C 361.03125 288.203125 361.085938 288.242188 361.160156 288.269531 C 361.234375 288.296875 361.34375 288.316406 361.488281 288.324219 C 361.632812 288.339844 361.820312 288.347656 362.0625 288.347656 C 362.304688 288.347656 362.496094 288.335938 362.640625 288.324219 C 362.78125 288.304688 362.882812 288.269531 362.945312 288.21875 C 363.007812 288.160156 363.035156 288.082031 363.035156 287.976562 C 363.027344 287.871094 362.996094 287.734375 362.9375 287.566406 Z M 359.085938 282.730469 L 353.855469 282.730469 L 356.445312 275.230469 L 356.460938 275.230469 Z M 403.4375 274.136719 C 403.4375 273.976562 403.410156 273.839844 403.367188 273.726562 C 403.316406 273.613281 403.257812 273.519531 403.183594 273.449219 C 403.109375 273.375 403.015625 273.320312 402.910156 273.285156 C 402.804688 273.25 402.691406 273.230469 402.574219 273.230469 L 401.285156 273.230469 C 401.089844 273.230469 400.914062 273.253906 400.769531 273.296875 C 400.617188 273.339844 400.480469 273.40625 400.359375 273.503906 C 400.238281 273.601562 400.125 273.734375 400.023438 273.894531 C 399.921875 274.058594 399.824219 274.253906 399.738281 274.488281 L 395.261719 285.347656 L 395.207031 285.347656 L 390.902344 274.453125 C 390.835938 274.242188 390.75 274.0625 390.65625 273.90625 C 390.5625 273.75 390.441406 273.625 390.300781 273.523438 C 390.160156 273.421875 389.996094 273.347656 389.808594 273.300781 C 389.617188 273.253906 389.398438 273.230469 389.144531 273.230469 L 387.917969 273.230469 C 387.707031 273.230469 387.511719 273.300781 387.339844 273.441406 C 387.164062 273.578125 387.082031 273.8125 387.082031 274.136719 L 387.082031 287.972656 C 387.082031 288.035156 387.09375 288.089844 387.121094 288.132812 C 387.148438 288.183594 387.203125 288.21875 387.277344 288.246094 C 387.355469 288.273438 387.453125 288.296875 387.582031 288.316406 C 387.710938 288.335938 387.867188 288.347656 388.0625 288.347656 C 388.261719 288.347656 388.425781 288.335938 388.554688 288.316406 C 388.679688 288.296875 388.78125 288.273438 388.863281 288.246094 C 388.941406 288.21875 389 288.183594 389.03125 288.132812 C 389.0625 288.089844 389.078125 288.035156 389.078125 287.972656 L 389.078125 274.871094 L 389.089844 274.871094 L 394.15625 288.03125 C 394.175781 288.074219 394.203125 288.121094 394.246094 288.160156 C 394.289062 288.195312 394.351562 288.230469 394.425781 288.257812 C 394.503906 288.28125 394.601562 288.304688 394.714844 288.324219 C 394.835938 288.335938 394.972656 288.347656 395.136719 288.347656 C 395.289062 288.347656 395.425781 288.339844 395.539062 288.324219 C 395.648438 288.316406 395.746094 288.296875 395.828125 288.269531 C 395.910156 288.242188 395.972656 288.207031 396.015625 288.171875 C 396.054688 288.132812 396.089844 288.085938 396.113281 288.03125 L 401.414062 274.871094 L 401.4375 274.871094 L 401.4375 287.972656 C 401.4375 288.035156 401.453125 288.089844 401.484375 288.132812 C 401.515625 288.183594 401.570312 288.21875 401.644531 288.246094 C 401.722656 288.273438 401.824219 288.296875 401.957031 288.316406 C 402.089844 288.335938 402.246094 288.347656 402.429688 288.347656 C 402.628906 288.347656 402.792969 288.335938 402.914062 288.316406 C 403.039062 288.296875 403.140625 288.273438 403.222656 288.246094 C 403.300781 288.21875 403.355469 288.183594 403.390625 288.132812 C 403.421875 288.089844 403.4375 288.035156 403.4375 287.972656 Z M 426.605469 273.535156 C 426.605469 273.472656 426.585938 273.417969 426.550781 273.371094 C 426.515625 273.324219 426.460938 273.285156 426.390625 273.261719 C 426.3125 273.234375 426.214844 273.210938 426.085938 273.191406 C 425.957031 273.171875 425.800781 273.160156 425.613281 273.160156 C 425.425781 273.160156 425.261719 273.171875 425.132812 273.191406 C 425.003906 273.210938 424.902344 273.234375 424.824219 273.261719 C 424.746094 273.285156 424.691406 273.324219 424.664062 273.371094 C 424.632812 273.417969 424.617188 273.472656 424.617188 273.535156 L 424.617188 282.730469 C 424.617188 283.402344 424.53125 283.992188 424.367188 284.496094 C 424.199219 285 423.957031 285.421875 423.644531 285.761719 C 423.332031 286.105469 422.945312 286.359375 422.492188 286.53125 C 422.039062 286.699219 421.523438 286.785156 420.941406 286.785156 C 420.378906 286.785156 419.867188 286.699219 419.414062 286.523438 C 418.960938 286.351562 418.570312 286.09375 418.25 285.746094 C 417.929688 285.402344 417.683594 284.96875 417.511719 284.449219 C 417.34375 283.929688 417.257812 283.324219 417.257812 282.625 L 417.257812 273.535156 C 417.257812 273.472656 417.242188 273.417969 417.210938 273.371094 C 417.179688 273.324219 417.125 273.285156 417.054688 273.261719 C 416.980469 273.234375 416.875 273.210938 416.746094 273.191406 C 416.609375 273.171875 416.453125 273.160156 416.269531 273.160156 C 416.066406 273.160156 415.902344 273.171875 415.78125 273.191406 C 415.65625 273.210938 415.554688 273.234375 415.480469 273.261719 C 415.398438 273.285156 415.34375 273.324219 415.3125 273.371094 C 415.285156 273.417969 415.269531 273.472656 415.269531 273.535156 L 415.269531 282.867188 C 415.269531 283.789062 415.398438 284.605469 415.664062 285.3125 C 415.929688 286.015625 416.304688 286.601562 416.789062 287.070312 C 417.28125 287.539062 417.863281 287.894531 418.546875 288.132812 C 419.230469 288.375 419.984375 288.496094 420.8125 288.496094 C 421.722656 288.496094 422.53125 288.367188 423.242188 288.113281 C 423.957031 287.855469 424.5625 287.480469 425.054688 286.984375 C 425.550781 286.488281 425.9375 285.882812 426.203125 285.164062 C 426.46875 284.449219 426.605469 283.632812 426.605469 282.71875 Z M 449.792969 273.570312 C 449.792969 273.515625 449.777344 273.464844 449.742188 273.417969 C 449.710938 273.371094 449.660156 273.328125 449.585938 273.296875 C 449.511719 273.261719 449.410156 273.234375 449.28125 273.222656 C 449.148438 273.203125 448.992188 273.195312 448.8125 273.195312 C 448.605469 273.195312 448.441406 273.203125 448.316406 273.222656 C 448.1875 273.234375 448.085938 273.261719 448.007812 273.296875 C 447.933594 273.328125 447.878906 273.371094 447.84375 273.417969 C 447.8125 273.464844 447.792969 273.515625 447.792969 273.570312 L 447.792969 281.726562 C 447.792969 282.34375 447.796875 282.980469 447.800781 283.640625 C 447.804688 284.304688 447.8125 284.941406 447.828125 285.554688 L 447.816406 285.554688 C 447.640625 285.191406 447.453125 284.828125 447.273438 284.46875 C 447.089844 284.105469 446.902344 283.738281 446.714844 283.371094 C 446.527344 282.996094 446.335938 282.617188 446.132812 282.238281 C 445.929688 281.851562 445.71875 281.457031 445.503906 281.054688 L 441.976562 274.453125 C 441.847656 274.210938 441.726562 274.011719 441.609375 273.855469 C 441.492188 273.695312 441.371094 273.570312 441.25 273.484375 C 441.125 273.394531 440.984375 273.328125 440.828125 273.289062 C 440.675781 273.25 440.480469 273.230469 440.246094 273.230469 L 439.261719 273.230469 C 439.058594 273.230469 438.863281 273.296875 438.6875 273.429688 C 438.511719 273.5625 438.425781 273.78125 438.425781 274.09375 L 438.425781 287.972656 C 438.425781 288.027344 438.441406 288.078125 438.472656 288.128906 C 438.503906 288.179688 438.558594 288.21875 438.632812 288.246094 C 438.703125 288.273438 438.808594 288.296875 438.933594 288.316406 C 439.0625 288.335938 439.222656 288.347656 439.417969 288.347656 C 439.613281 288.347656 439.773438 288.335938 439.902344 288.316406 C 440.027344 288.296875 440.128906 288.273438 440.210938 288.246094 C 440.285156 288.21875 440.34375 288.179688 440.375 288.128906 C 440.40625 288.078125 440.425781 288.027344 440.425781 287.972656 L 440.425781 278.894531 C 440.425781 278.320312 440.417969 277.742188 440.414062 277.160156 C 440.40625 276.578125 440.394531 276.011719 440.378906 275.453125 L 440.402344 275.453125 C 440.609375 275.90625 440.835938 276.378906 441.082031 276.863281 C 441.324219 277.347656 441.566406 277.808594 441.804688 278.253906 L 446.394531 286.808594 C 446.554688 287.113281 446.703125 287.359375 446.84375 287.554688 C 446.980469 287.746094 447.125 287.902344 447.261719 288.011719 C 447.402344 288.125 447.550781 288.203125 447.707031 288.246094 C 447.863281 288.289062 448.046875 288.308594 448.257812 288.308594 L 448.914062 288.308594 C 449.019531 288.308594 449.125 288.292969 449.226562 288.261719 C 449.335938 288.230469 449.425781 288.183594 449.511719 288.113281 C 449.597656 288.039062 449.664062 287.953125 449.714844 287.84375 C 449.769531 287.734375 449.792969 287.605469 449.792969 287.449219 Z M 463.648438 273.535156 C 463.648438 273.472656 463.632812 273.417969 463.601562 273.371094 C 463.570312 273.324219 463.515625 273.285156 463.4375 273.261719 C 463.363281 273.234375 463.261719 273.210938 463.132812 273.191406 C 463.007812 273.171875 462.84375 273.160156 462.648438 273.160156 C 462.472656 273.160156 462.316406 273.171875 462.191406 273.191406 C 462.0625 273.210938 461.957031 273.234375 461.875 273.261719 C 461.796875 273.285156 461.738281 273.324219 461.703125 273.371094 C 461.667969 273.417969 461.648438 273.472656 461.648438 273.535156 L 461.648438 287.972656 C 461.648438 288.035156 461.664062 288.089844 461.695312 288.132812 C 461.726562 288.183594 461.78125 288.21875 461.859375 288.246094 C 461.9375 288.273438 462.042969 288.296875 462.171875 288.316406 C 462.304688 288.335938 462.464844 288.347656 462.648438 288.347656 C 462.84375 288.347656 463.007812 288.335938 463.132812 288.316406 C 463.261719 288.296875 463.363281 288.273438 463.4375 288.246094 C 463.515625 288.21875 463.570312 288.183594 463.601562 288.132812 C 463.632812 288.089844 463.648438 288.035156 463.648438 287.972656 Z M 485.53125 285.703125 C 485.519531 285.589844 485.503906 285.496094 485.476562 285.433594 C 485.457031 285.367188 485.421875 285.324219 485.386719 285.300781 C 485.347656 285.273438 485.300781 285.265625 485.242188 285.265625 C 485.128906 285.265625 484.96875 285.339844 484.765625 285.484375 C 484.5625 285.632812 484.304688 285.796875 483.988281 285.980469 C 483.671875 286.160156 483.292969 286.324219 482.84375 286.472656 C 482.394531 286.621094 481.871094 286.695312 481.269531 286.695312 C 480.5625 286.695312 479.929688 286.566406 479.367188 286.316406 C 478.804688 286.0625 478.332031 285.691406 477.945312 285.199219 C 477.5625 284.707031 477.265625 284.09375 477.058594 283.363281 C 476.851562 282.628906 476.75 281.785156 476.75 280.835938 C 476.75 279.875 476.855469 279.019531 477.070312 278.269531 C 477.285156 277.523438 477.589844 276.890625 477.976562 276.371094 C 478.367188 275.851562 478.835938 275.457031 479.382812 275.191406 C 479.933594 274.921875 480.542969 274.789062 481.214844 274.789062 C 481.828125 274.789062 482.355469 274.863281 482.796875 275.015625 C 483.238281 275.167969 483.609375 275.335938 483.917969 275.515625 C 484.226562 275.699219 484.476562 275.863281 484.671875 276.015625 C 484.867188 276.167969 485.019531 276.242188 485.128906 276.242188 C 485.191406 276.242188 485.242188 276.226562 485.285156 276.191406 C 485.328125 276.15625 485.367188 276.101562 485.398438 276.027344 C 485.429688 275.953125 485.453125 275.863281 485.46875 275.753906 C 485.480469 275.648438 485.488281 275.515625 485.488281 275.359375 C 485.488281 275.21875 485.484375 275.101562 485.472656 275 C 485.460938 274.898438 485.445312 274.8125 485.425781 274.738281 C 485.40625 274.664062 485.382812 274.601562 485.351562 274.542969 C 485.320312 274.488281 485.253906 274.410156 485.148438 274.304688 C 485.046875 274.203125 484.855469 274.070312 484.585938 273.90625 C 484.3125 273.742188 484.003906 273.601562 483.65625 273.476562 C 483.304688 273.351562 482.925781 273.25 482.515625 273.167969 C 482.105469 273.085938 481.683594 273.046875 481.25 273.046875 C 480.261719 273.046875 479.367188 273.222656 478.554688 273.578125 C 477.746094 273.9375 477.050781 274.453125 476.46875 275.132812 C 475.886719 275.808594 475.4375 276.636719 475.113281 277.613281 C 474.792969 278.589844 474.632812 279.703125 474.632812 280.949219 C 474.632812 282.167969 474.78125 283.242188 475.078125 284.179688 C 475.378906 285.109375 475.804688 285.894531 476.359375 286.53125 C 476.914062 287.167969 477.582031 287.648438 478.371094 287.972656 C 479.15625 288.296875 480.039062 288.460938 481.015625 288.460938 C 481.578125 288.460938 482.101562 288.40625 482.578125 288.304688 C 483.054688 288.199219 483.476562 288.070312 483.847656 287.921875 C 484.214844 287.769531 484.519531 287.613281 484.769531 287.453125 C 485.019531 287.296875 485.179688 287.179688 485.257812 287.101562 C 485.335938 287.023438 485.390625 286.957031 485.421875 286.902344 C 485.453125 286.847656 485.476562 286.785156 485.496094 286.714844 C 485.515625 286.648438 485.527344 286.566406 485.535156 286.472656 C 485.546875 286.378906 485.550781 286.269531 485.550781 286.144531 C 485.550781 285.96875 485.539062 285.820312 485.53125 285.703125 M 498.058594 273.535156 C 498.058594 273.472656 498.039062 273.417969 498.011719 273.371094 C 497.980469 273.324219 497.925781 273.285156 497.847656 273.261719 C 497.769531 273.234375 497.667969 273.210938 497.539062 273.191406 C 497.410156 273.171875 497.25 273.160156 497.054688 273.160156 C 496.878906 273.160156 496.726562 273.171875 496.597656 273.191406 C 496.46875 273.210938 496.363281 273.234375 496.28125 273.261719 C 496.203125 273.285156 496.140625 273.324219 496.109375 273.371094 C 496.074219 273.417969 496.058594 273.472656 496.058594 273.535156 L 496.058594 287.972656 C 496.058594 288.035156 496.070312 288.089844 496.105469 288.132812 C 496.132812 288.183594 496.1875 288.21875 496.265625 288.246094 C 496.34375 288.273438 496.445312 288.296875 496.578125 288.316406 C 496.710938 288.335938 496.867188 288.347656 497.054688 288.347656 C 497.25 288.347656 497.410156 288.335938 497.539062 288.316406 C 497.667969 288.296875 497.769531 288.273438 497.847656 288.246094 C 497.925781 288.21875 497.980469 288.183594 498.011719 288.132812 C 498.039062 288.089844 498.058594 288.035156 498.058594 287.972656 Z M 518.914062 276.085938 C 518.757812 275.617188 518.53125 275.203125 518.234375 274.847656 C 517.941406 274.488281 517.582031 274.191406 517.160156 273.949219 C 516.738281 273.703125 516.324219 273.535156 515.914062 273.449219 C 515.507812 273.359375 515.15625 273.300781 514.859375 273.273438 C 514.558594 273.242188 514.25 273.230469 513.921875 273.230469 L 510.703125 273.230469 C 510.5 273.230469 510.316406 273.296875 510.152344 273.429688 C 509.992188 273.5625 509.910156 273.78125 509.910156 274.09375 L 509.910156 287.972656 C 509.910156 288.035156 509.929688 288.089844 509.960938 288.132812 C 509.988281 288.183594 510.042969 288.21875 510.121094 288.246094 C 510.199219 288.273438 510.300781 288.296875 510.429688 288.316406 C 510.558594 288.335938 510.71875 288.347656 510.910156 288.347656 C 511.105469 288.347656 511.265625 288.335938 511.394531 288.316406 C 511.519531 288.296875 511.625 288.273438 511.695312 288.246094 C 511.769531 288.21875 511.824219 288.183594 511.859375 288.132812 C 511.894531 288.089844 511.910156 288.035156 511.910156 287.972656 L 511.910156 282.554688 L 513.621094 282.554688 C 514.550781 282.554688 515.351562 282.4375 516.019531 282.207031 C 516.691406 281.972656 517.257812 281.644531 517.71875 281.21875 C 518.179688 280.792969 518.535156 280.277344 518.78125 279.671875 C 519.027344 279.070312 519.152344 278.386719 519.152344 277.636719 C 519.152344 277.074219 519.074219 276.554688 518.914062 276.085938 M 516.84375 279.050781 C 516.699219 279.433594 516.496094 279.761719 516.226562 280.039062 C 515.953125 280.3125 515.617188 280.53125 515.21875 280.683594 C 514.820312 280.839844 514.316406 280.914062 513.710938 280.914062 L 511.910156 280.914062 L 511.910156 274.882812 L 513.757812 274.882812 C 514.101562 274.882812 514.449219 274.910156 514.8125 274.964844 C 515.171875 275.019531 515.519531 275.144531 515.855469 275.347656 C 516.195312 275.546875 516.476562 275.855469 516.707031 276.265625 C 516.9375 276.675781 517.050781 277.191406 517.050781 277.800781 C 517.050781 278.25 516.980469 278.664062 516.84375 279.050781 M 534.53125 273.589844 C 534.5 273.507812 534.460938 273.4375 534.402344 273.375 C 534.351562 273.320312 534.273438 273.277344 534.171875 273.242188 C 534.070312 273.210938 533.9375 273.191406 533.773438 273.179688 C 533.613281 273.167969 533.410156 273.160156 533.160156 273.160156 C 532.929688 273.160156 532.734375 273.167969 532.585938 273.179688 C 532.433594 273.191406 532.308594 273.210938 532.210938 273.242188 C 532.113281 273.277344 532.042969 273.316406 531.992188 273.371094 C 531.941406 273.425781 531.898438 273.496094 531.871094 273.578125 L 526.824219 287.554688 C 526.761719 287.726562 526.730469 287.863281 526.726562 287.96875 C 526.722656 288.070312 526.75 288.148438 526.808594 288.203125 C 526.863281 288.257812 526.964844 288.296875 527.109375 288.316406 C 527.253906 288.335938 527.433594 288.347656 527.660156 288.347656 C 527.878906 288.347656 528.054688 288.335938 528.191406 288.324219 C 528.324219 288.304688 528.433594 288.28125 528.503906 288.246094 C 528.578125 288.210938 528.632812 288.167969 528.675781 288.117188 C 528.710938 288.066406 528.742188 288.007812 528.765625 287.9375 L 529.996094 284.324219 L 536.253906 284.324219 L 537.542969 287.984375 C 537.574219 288.054688 537.605469 288.113281 537.644531 288.160156 C 537.675781 288.203125 537.730469 288.242188 537.804688 288.269531 C 537.878906 288.296875 537.984375 288.316406 538.128906 288.324219 C 538.273438 288.339844 538.464844 288.347656 538.707031 288.347656 C 538.945312 288.347656 539.136719 288.335938 539.28125 288.324219 C 539.425781 288.304688 539.523438 288.269531 539.589844 288.21875 C 539.652344 288.160156 539.679688 288.082031 539.675781 287.976562 C 539.671875 287.871094 539.640625 287.734375 539.578125 287.566406 Z M 535.730469 282.730469 L 530.496094 282.730469 L 533.089844 275.230469 L 533.101562 275.230469 Z M 557.722656 287.007812 C 557.707031 286.898438 557.683594 286.8125 557.644531 286.746094 C 557.609375 286.679688 557.570312 286.632812 557.519531 286.59375 C 557.46875 286.558594 557.410156 286.539062 557.339844 286.539062 L 551.945312 286.539062 L 551.945312 273.535156 C 551.945312 273.472656 551.929688 273.417969 551.894531 273.371094 C 551.867188 273.324219 551.8125 273.285156 551.734375 273.261719 C 551.65625 273.234375 551.554688 273.210938 551.425781 273.191406 C 551.300781 273.171875 551.140625 273.160156 550.941406 273.160156 C 550.761719 273.160156 550.601562 273.171875 550.46875 273.191406 C 550.335938 273.210938 550.230469 273.234375 550.152344 273.261719 C 550.078125 273.285156 550.023438 273.324219 549.988281 273.371094 C 549.960938 273.417969 549.945312 273.472656 549.945312 273.535156 L 549.945312 287.460938 C 549.945312 287.761719 550.023438 287.976562 550.183594 288.097656 C 550.339844 288.214844 550.511719 288.273438 550.6875 288.273438 L 557.339844 288.273438 C 557.410156 288.273438 557.46875 288.257812 557.519531 288.222656 C 557.570312 288.1875 557.609375 288.132812 557.644531 288.0625 C 557.683594 287.988281 557.707031 287.898438 557.722656 287.792969 C 557.738281 287.6875 557.746094 287.558594 557.746094 287.402344 C 557.746094 287.246094 557.738281 287.117188 557.722656 287.007812 "/>
<path fill-rule="nonzero" fill="#342D2D" fill-opacity="1" d="M 283.113281 243.710938 L 283.113281 231.601562 L 251.5625 231.601562 L 251.5625 174.164062 L 237.984375 174.164062 L 237.984375 243.710938 Z M 307.730469 174.164062 L 294.152344 174.164062 L 294.152344 243.710938 L 307.730469 243.710938 Z M 368.875 223.199219 C 368.875 217.046875 367.214844 211.964844 363.503906 208.449219 C 360.570312 205.714844 356.566406 203.957031 350.21875 203.078125 L 342.011719 201.90625 C 339.179688 201.515625 336.933594 200.4375 335.566406 199.171875 C 334.101562 197.800781 333.515625 195.945312 333.515625 194.1875 C 333.515625 189.402344 337.03125 185.398438 344.261719 185.398438 C 348.851562 185.398438 354.125 185.984375 358.519531 190.183594 L 367.117188 181.6875 C 361.15625 175.921875 354.222656 173.578125 344.648438 173.578125 C 329.605469 173.578125 320.425781 182.269531 320.425781 194.675781 C 320.425781 200.535156 322.085938 205.03125 325.40625 208.351562 C 328.53125 211.378906 332.929688 213.238281 338.890625 214.113281 L 347.285156 215.285156 C 350.511719 215.777344 352.074219 216.460938 353.441406 217.730469 C 354.90625 219.097656 355.589844 221.148438 355.589844 223.589844 C 355.589844 229.15625 351.292969 232.1875 343.28125 232.1875 C 336.835938 232.1875 330.878906 230.71875 326.480469 226.324219 L 317.691406 235.117188 C 324.527344 242.054688 332.539062 244.296875 343.085938 244.296875 C 357.640625 244.296875 368.875 236.679688 368.875 223.199219 M 432.074219 223.6875 C 432.074219 214.40625 426.699219 210.011719 422.5 208.058594 C 426.015625 206.398438 431.09375 201.417969 431.09375 193.699219 C 431.09375 181.78125 423.183594 174.164062 409.605469 174.164062 L 381.667969 174.164062 L 381.667969 243.710938 L 410.777344 243.710938 C 423.183594 243.710938 432.074219 236.679688 432.074219 223.6875 M 418.496094 223.003906 C 418.496094 227.691406 415.5625 231.601562 409.410156 231.601562 L 395.246094 231.601562 L 395.246094 214.507812 L 409.410156 214.507812 C 415.5625 214.507812 418.496094 218.316406 418.496094 223.003906 M 417.519531 194.285156 C 417.519531 199.074219 414.296875 202.296875 408.53125 202.296875 L 395.246094 202.296875 L 395.246094 186.277344 L 408.53125 186.277344 C 414.296875 186.277344 417.519531 189.5 417.519531 194.285156 M 494.976562 208.9375 C 494.976562 196.925781 495.074219 188.230469 488.042969 181.195312 C 483.15625 176.3125 477.199219 173.578125 469.285156 173.578125 C 461.375 173.578125 455.320312 176.3125 450.433594 181.195312 C 443.402344 188.230469 443.597656 196.925781 443.597656 208.9375 C 443.597656 220.953125 443.402344 229.648438 450.433594 236.679688 C 455.320312 241.5625 461.375 244.296875 469.285156 244.296875 C 477.199219 244.296875 483.15625 241.5625 488.042969 236.679688 C 495.074219 229.648438 494.976562 220.953125 494.976562 208.9375 M 481.398438 208.9375 C 481.398438 222.320312 480.617188 225.546875 477.980469 228.476562 C 476.023438 230.71875 473 232.1875 469.285156 232.1875 C 465.574219 232.1875 462.449219 230.71875 460.496094 228.476562 C 457.859375 225.546875 457.175781 222.320312 457.175781 208.9375 C 457.175781 195.554688 457.859375 192.332031 460.496094 189.402344 C 462.449219 187.15625 465.574219 185.691406 469.285156 185.691406 C 473 185.691406 476.023438 187.15625 477.980469 189.402344 C 480.617188 192.332031 481.398438 195.554688 481.398438 208.9375 M 561.597656 243.710938 L 536.199219 174.164062 L 525.550781 174.164062 L 500.253906 243.710938 L 514.414062 243.710938 L 518.617188 231.40625 L 543.328125 231.40625 L 547.429688 243.710938 Z M 539.714844 219.976562 L 522.425781 219.976562 L 531.21875 194.675781 Z M 539.714844 219.976562 "/>
</svg>
