<svg xmlns="http://www.w3.org/2000/svg" viewBox="0 0 64 64" role="img" aria-labelledby="title">
  <title id="title">Vaga</title>
  <rect width="64" height="64" rx="15" fill="#342D2D"/>
  <g transform="translate(8.4 13.3) scale(.515)">
    <path fill="#FFFFFF" d="M0 0 C8.25 0 16.5 0 25 0 C28.375 9 28.375 9 29.534 12.764 C29.664 13.184 29.664 13.184 30.322 15.31 C30.591 16.187 30.86 17.065 31.137 17.969 C31.421 18.89 31.705 19.811 31.998 20.759 C32.897 23.672 33.792 26.586 34.688 29.5 C35.3 31.487 35.913 33.474 36.525 35.461 C38.019 40.307 39.511 45.153 41 50 C46.616 33.417 51.857 16.735 57 0 C65.58 0 74.16 0 83 0 C77.412 17.063 71.57 34.018 65.562 50.938 C65.383 51.443 65.383 51.443 64.477 54.002 C63.447 56.908 62.414 59.811 61.379 62.715 C61.068 63.593 60.757 64.471 60.436 65.376 C60.145 66.19 59.853 67.004 59.553 67.844 C59.427 68.198 59.427 68.198 58.787 69.992 C57.981 72.048 56.987 74.025 56 76 C46.1 76 36.2 76 26 76 C19.772 58.577 19.772 58.577 17.138 51.195 C16.798 50.24 16.457 49.285 16.106 48.302 C15.413 46.359 14.72 44.417 14.027 42.474 C12.147 37.205 10.261 31.938 8.367 26.673 C7.335 23.803 6.306 20.931 5.278 18.059 C4.803 16.732 4.325 15.406 3.846 14.08 C3.186 12.254 2.532 10.426 1.879 8.598 C1.514 7.582 1.148 6.566 0.772 5.52 C0 3 0 3 0 0 Z"/>
  </g>
  <circle cx="51.5" cy="13.5" r="5.5" fill="#00BF63"/>
</svg>
